<?xml version="1.0" standalone="no"?>
<!DOCTYPE svg PUBLIC "-//W3C//DTD SVG 20010904//EN"
 "http://www.w3.org/TR/2001/REC-SVG-20010904/DTD/svg10.dtd">
<svg version="1.0" xmlns="http://www.w3.org/2000/svg"
 width="256.000000pt" height="256.000000pt" viewBox="0 0 256.000000 256.000000"
 preserveAspectRatio="xMidYMid meet">

<g transform="translate(0.000000,256.000000) scale(0.100000,-0.100000)"
fill="#FFFFFF" stroke="none">
<path d="M712 2018 c-56 -15 -88 -89 -61 -141 7 -11 125 -156 263 -321 l251
-301 5 -327 5 -328 32 -31 c44 -45 102 -45 146 0 l32 31 5 328 5 327 258 309
c141 169 260 319 263 332 13 52 -20 109 -71 122 -68 19 -79 9 -327 -288 -128
-154 -235 -280 -238 -280 -3 0 -109 124 -235 276 -126 151 -233 278 -237 280
-23 15 -66 20 -96 12z"/>
</g>
</svg>
